<svg width="30" height="30" viewBox="0 0 30 30" fill="none" xmlns="http://www.w3.org/2000/svg">
<path d="M29.1371 3.87451C29.646 4.29451 29.7146 4.91326 29.7199 5.41388C29.7214 5.54813 29.721 5.66063 29.7199 5.77425C29.7169 6.32588 29.7199 7.845 29.7199 7.845V10.269V11.8508C29.7199 11.8508 29.7236 13.6875 29.7199 14.355C29.7206 14.6704 29.7221 14.9813 29.7202 15.3615C29.7172 15.9023 29.6332 16.4464 29.3902 16.8896C29.082 17.4656 28.503 17.8384 27.9004 18.0491C19.3909 20.9445 11.6321 23.6314 3.12261 26.5271C2.72511 26.6756 2.33024 26.7667 1.86074 26.6779C1.48536 26.5984 1.14561 26.4217 0.909736 26.1397C0.382861 25.5521 0.302236 25.0057 0.288736 24.3941C0.286861 23.9539 0.288736 22.713 0.288736 22.713L0.289861 20.7041L0.288736 16.8413C0.288736 16.8413 0.289861 15.8378 0.289861 15.3285C0.282736 14.6531 0.299236 13.7273 0.689986 13.1693C1.07324 12.6128 1.73286 12.2423 2.36549 12.0214C10.9391 9.219 16.9147 6.93338 25.4887 4.13213C26.2436 3.89626 26.1206 3.93451 26.535 3.79538C27.5205 3.46426 28.2037 3.11513 29.1371 3.87451Z" fill="black"/>
<path d="M2.23011 26.925C2.10036 26.925 1.96461 26.9134 1.82136 26.8864C1.37136 26.7911 1.00124 26.58 0.746987 26.2759C0.152236 25.6129 0.0896114 24.9847 0.0764864 24.3986C0.0746114 23.9542 0.0764864 22.7126 0.0764864 22.7126L0.0776114 20.7041L0.0764864 16.8412C0.0764864 16.8409 0.0776114 15.8377 0.0776114 15.3285C0.0686114 14.4832 0.115486 13.6204 0.515987 13.0474C0.969737 12.3889 1.73399 12.0169 2.29536 11.8207C6.57749 10.4213 10.2697 9.13013 13.8401 7.88175C17.4225 6.62888 21.1271 5.33363 25.4227 3.93038C26.0655 3.72938 26.0704 3.72788 26.313 3.64613L26.4671 3.59401C26.5582 3.56326 26.6467 3.53251 26.7334 3.50251C27.5917 3.20401 28.3331 2.94638 29.271 3.70951L29.2721 3.71063C29.8463 4.18426 29.9265 4.86826 29.9321 5.41125C29.9336 5.547 29.9333 5.66063 29.9321 5.77575C29.9291 6.3195 29.9321 7.82888 29.9321 7.84425V11.8504C29.9321 11.8684 29.9359 13.695 29.9321 14.3561L29.9325 14.5492C29.9333 14.8012 29.934 15.06 29.9321 15.3626C29.9284 16.0185 29.8088 16.5667 29.5763 16.9916C29.1975 17.6989 28.4936 18.0664 27.9701 18.2497C23.703 19.7017 19.5574 21.1241 15.5486 22.5C11.5597 23.8687 7.43474 25.2844 3.19049 26.7285C2.92124 26.829 2.60249 26.925 2.23011 26.925ZM27.996 3.63301C27.6517 3.63301 27.2996 3.75526 26.8725 3.90376C26.7847 3.93413 26.6947 3.96563 26.6021 3.99676L26.4484 4.04851C26.2057 4.13026 26.1964 4.13363 25.5517 4.33501C21.2629 5.736 17.5605 7.03088 13.9804 8.28263C10.4077 9.53175 6.71361 10.8236 2.43149 12.2231C1.93386 12.3967 1.25436 12.7241 0.865112 13.2896C0.486362 13.8311 0.497237 14.841 0.502487 15.3262C0.502487 15.8377 0.501362 16.8412 0.501362 16.8412L0.502487 20.7041L0.501362 22.713C0.501362 22.7134 0.499487 23.9531 0.501362 24.393C0.515237 25.0234 0.612362 25.4895 1.06836 25.9976C1.26599 26.2339 1.55361 26.3951 1.90536 26.4697C2.35086 26.5537 2.71836 26.4514 3.04874 26.328C7.29824 24.8816 11.4229 23.4664 15.4117 22.0976C19.4209 20.7217 23.5665 19.2994 27.8325 17.8477C28.2829 17.6899 28.8885 17.3775 29.2039 16.7887C29.4034 16.4246 29.5054 15.9446 29.5088 15.3596C29.5103 15.0581 29.5099 14.8005 29.5091 14.5496L29.5088 14.3546C29.5125 13.6935 29.5088 11.8687 29.5088 11.8504V7.84463C29.5088 7.83 29.5058 6.31913 29.5088 5.77275C29.5099 5.65988 29.5103 5.5485 29.5088 5.41575C29.5039 4.93688 29.4397 4.39876 29.0036 4.03838C28.6372 3.74138 28.32 3.63301 27.996 3.63301Z" fill="white"/>
<path d="M23.8815 6.52013C25.2983 6.03526 26.5496 5.61413 27.9668 5.13151C28.0253 5.11163 28.0463 5.13376 28.0463 5.17763C28.0459 5.23501 28.0463 5.44088 28.0463 5.44088V6.36038V7.72463V10.2236C28.0463 10.2236 28.05 12.1665 28.0463 12.9847C28.0395 14.4289 28.0463 15.444 28.0463 15.444C28.0463 15.444 28.0496 16.0882 28.0485 16.41C28.0485 16.4325 28.0286 16.4467 28.0091 16.4516C26.6535 16.9102 25.2979 17.3692 23.9419 17.8275C23.9126 17.844 23.877 17.8196 23.8815 17.7866C23.8755 17.0494 23.8808 15.5752 23.8808 15.5752V11.8751V7.04213C23.8808 7.04213 23.8823 6.65926 23.8815 6.52013Z" fill="#FFEF00"/>
<path d="M23.1742 6.73012C23.2267 6.71662 23.2972 6.75562 23.2972 6.8085C23.3006 7.21687 23.2972 8.133 23.2972 8.133V15.5269C23.2972 15.5269 23.2834 16.2731 23.2972 16.809C23.3014 16.9725 23.301 17.1364 23.3017 17.262C23.3081 17.3029 23.25 17.322 23.232 17.2849C21.8569 15.5153 20.4814 13.7456 19.1066 11.9756C19.0845 11.9426 19.0459 11.9156 19.0447 11.8729C19.044 10.6309 19.0414 9.40013 19.0436 8.1585C19.0436 8.1405 19.0541 8.12325 19.0672 8.11725C20.4307 7.65525 21.8119 7.19175 23.1742 6.73012Z" fill="#FFEF00"/>
<path d="M14.4525 9.70575C15.0611 9.50288 15.5494 9.33863 16.158 9.13575C16.2052 9.1155 16.2274 9.17213 16.2529 9.20063C18.5269 12.1279 20.8012 15.0551 23.076 17.982C23.0989 18.0165 23.1442 18.048 23.1277 18.0945C21.7567 18.5648 20.3831 19.0283 19.0117 19.497C18.9915 19.5056 18.9675 19.5049 18.9555 19.4843C18.5557 18.9566 18.1586 18.4264 17.7581 17.8991C16.6556 18.2734 15.5527 18.6476 14.4499 19.0215C14.4206 19.0369 14.3884 19.0095 14.394 18.9788C14.3872 18.2704 14.3974 17.5811 14.391 16.8728C14.3936 16.8165 14.4026 16.7978 14.4682 16.7753C15.1369 16.5413 15.7346 16.3358 16.4036 16.1021C15.7192 15.192 15.1222 14.3925 14.4371 13.4831C14.3846 13.4036 14.394 13.4044 14.394 13.3868C14.3932 13.335 14.394 13.1625 14.394 13.1625V12.7121V11.5556C14.394 11.5556 14.3925 11.2039 14.394 11.0299C14.3966 10.6729 14.3917 10.3973 14.394 10.0365C14.3944 9.97088 14.3932 9.86925 14.3944 9.798C14.3936 9.71625 14.4094 9.71963 14.4525 9.70575Z" fill="#FFEF00"/>
<path d="M13.7006 9.97426C13.8026 9.94013 13.8712 9.98963 13.8712 10.0646C13.8712 10.4483 13.8712 11.0254 13.8712 11.0254C13.8712 11.0254 13.8675 11.8935 13.8712 13.1344C13.8727 13.6703 13.8697 14.9531 13.8697 14.9531C13.8697 14.9531 13.8701 15.3574 13.8712 15.5603C13.8754 16.3628 13.872 18.0146 13.872 18.0146C13.872 18.0146 13.8679 18.7091 13.8712 19.0451C13.8772 19.6031 13.8731 20.091 13.8712 20.5669C13.8716 20.6066 13.8131 20.613 13.7974 20.5796C12.4515 18.8599 11.0884 17.1281 9.74548 15.4058C9.74473 15.3064 9.74548 15.0731 9.74548 15.0731L9.74661 13.8844C9.74661 13.8844 9.74511 13.0493 9.74548 12.6431C9.74548 12.4365 9.74698 11.9063 9.74698 11.9063L9.74736 11.7424C9.74736 11.7424 9.74661 11.5391 9.74548 11.4491C9.74548 11.3306 9.75261 11.319 9.79761 11.2946C11.1345 10.8413 12.3634 10.4269 13.7006 9.97426Z" fill="#FFEF00"/>
<path d="M6.16536 12.5528C6.19349 12.5396 6.22986 12.5629 6.22499 12.5974C6.20924 16.3208 6.23886 19.9676 6.22499 23.6914C6.22349 23.7401 6.24749 23.8605 6.15374 23.8864C4.78911 24.3488 3.46048 24.7973 2.09586 25.2596C1.99986 25.2915 2.00023 25.2229 1.99986 25.1888C1.99798 24.924 1.99986 24.3994 1.99986 24.3994V16.4063L2.00136 14.448C2.00136 14.448 2.00061 14.1698 1.99986 14.0625C1.99986 13.9808 2.02836 13.959 2.08123 13.9358C3.49086 13.4584 4.75648 13.0294 6.16536 12.5528Z" fill="#FFEF00"/>
<path d="M6.78524 12.6398C6.80587 12.627 6.83287 12.6338 6.84599 12.6548C9.09825 15.5284 11.3756 18.4028 13.6279 21.276C13.6553 21.2985 13.6448 21.342 13.6091 21.3473C12.249 21.8085 10.8881 22.269 9.52762 22.7292C9.48412 22.7505 9.46125 22.6992 9.43875 22.6722C8.56537 21.534 7.69162 20.3959 6.81787 19.2578C6.79987 19.2323 6.77137 19.2098 6.77287 19.1764C6.77962 17.0096 6.76799 14.8436 6.77287 12.6773C6.77249 12.6638 6.77587 12.6503 6.78524 12.6398Z" fill="#FFEF00"/>
</svg>
